#!OML:ASF F:\VICON\USERDATA\INSTALL\rory3\rory3.ASF
:FULLY-SPECIFIED
:DEGREES
719
root -0.517655 18.5631 10.7884 -538.99 70.7657 -196.313
lowerback -7.71871 2.90156 -7.86109
upperback -11.602 4.84118 -6.94738
thorax -8.04106 3.178 -3.07896
lowerneck -10.3436 8.30503 5.74407
upperneck 34.5982 11.8995 4.62273
head 13.4488 7.34286 2.71981
rclavicle 1.19271e-014 -1.43125e-014
rhumerus 218.54 -60.0842 -234.315
rradius 16.1766
rwrist 129.635
rhand -6.8276 3.77262
rfingers 7.12502
rthumb 19.0366 -25.3158
lclavicle 1.19271e-014 -1.43125e-014
lhumerus 14.8888 2.91723 33.655
lradius 14.6703
lwrist -62.3473
lhand 1.03715 27.4188
lfingers 7.12502
lthumb 26.5834 55.573
rfemur -20.6303 16.6174 21.2035
rtibia 18.9952
rfoot -0.814273 -25.9822
rtoes 35.1275
lfemur -101.748 66.0934 -57.0526
ltibia 100.201
lfoot -21.721 58.7556
ltoes 48.6036
720
root -0.55696 18.6484 10.8134 -540.725 72.6714 -197.761
lowerback -7.66815 2.94525 -7.77391
upperback -11.7138 4.86854 -7.06014
thorax -8.17986 3.17842 -3.26336
lowerneck -9.70964 8.63815 6.19089
upperneck 34.2852 12.2916 4.65539
head 13.2175 7.56874 2.65008
rclavicle -6.67916e-014 -3.18055e-015
rhumerus 222.199 -61.3122 -238.804
rradius 15.8324
rwrist 127.74
rhand -6.70988 3.72961
rfingers 7.12502
rthumb 19.1498 -25.3476
lclavicle -6.67916e-014 -3.18055e-015
lhumerus 15.5468 -0.240331 33.4179
lradius 14.7919
lwrist -59.3544
lhand 0.340699 27.283
lfingers 7.12502
lthumb 25.9167 55.5365
rfemur -19.3353 15.3748 22.0633
rtibia 17.4585
rfoot -2.88667 -30.2482
rtoes 38.296
lfemur -105.614 66.2621 -58.9001
ltibia 102.282
lfoot -13.7633 60.3492
ltoes 47.2975
721
root -0.594778 18.715 10.8261 -542.617 74.4671 -199.218
lowerback -7.69468 3.05014 -7.27925
upperback -11.6119 4.96775 -7.23173
thorax -7.98509 3.16415 -3.69553
lowerneck -9.39163 8.94781 6.25279
upperneck 33.9617 12.5966 4.95267
head 12.9954 7.73192 2.74231
rclavicle 0 -4.77083e-015
rhumerus 226.536 -62.5064 -244.162
rradius 15.3754
rwrist 125.164
rhand -6.29195 3.68301
rfingers 7.12502
rthumb 19.5517 -25.3539
lclavicle 0 -4.77083e-015
lhumerus 16.3446 -2.98635 33.2971
lradius 15.0965
lwrist -56.2672
lhand 0.448376 27.3149
lfingers 7.12502
lthumb 26.0198 55.5532
rfemur -17.9611 13.7751 23.0451
rtibia 15.9823
rfoot -4.57159 -32.8729
rtoes 40.0222
lfemur -108.644 66.4054 -59.8457
ltibia 104.37
lfoot -12.4992 60.7627
ltoes 46.8861
722
root -0.640225 18.7527 10.8371 -545.782 76.0372 -201.829
lowerback -7.07274 2.74798 -7.39406
upperback -11.8769 4.46362 -6.87992
thorax -8.68391 2.93557 -3.34258
lowerneck -8.41844 9.45896 5.95962
upperneck 33.9967 13.4831 5.10675
head 12.7689 8.12854 2.88895
rclavicle 1.03368e-014 4.29375e-014
rhumerus 226.035 -63.0427 -244.18
rradius 15.2641
rwrist 125.848
rhand -6.13525 4.37747
rfingers 7.12502
rthumb 19.7023 -24.6441
lclavicle 1.03368e-014 4.29375e-014
lhumerus 15.6063 -5.72689 33.2821
lradius 15.7522
lwrist -52.9876
lhand 0.84942 27.4345
lfingers 7.12502
lthumb 26.4037 55.6158
rfemur -16.6175 12.1618 23.8096
rtibia 14.5296
rfoot -4.03251 -34.9345
rtoes 40.1391
lfemur -110.918 66.505 -60.4306
ltibia 106.421
lfoot -20.6533 59.8231
ltoes 48.457
723
root -0.687769 18.7767 10.849 -549.473 77.3219 -205.023
lowerback -6.65655 2.5084 -7.35431
upperback -11.9184 4.06639 -6.85443
thorax -8.97037 2.72744 -3.37177
lowerneck -7.86331 9.89218 6.14115
upperneck 33.869 14.1053 5.11819
head 12.6196 8.42378 2.89266
rclavicle 6.91771e-014 -2.38542e-014
rhumerus 221.137 -61.0633 -239.7
rradius 15.5343
rwrist 129.058
rhand -6.56179 5.55035
rfingers 7.12502
rthumb 19.2922 -23.5127
lclavicle 6.91771e-014 -2.38542e-014
lhumerus 15.6515 -8.63521 33.1758
lradius 16.3435
lwrist -49.3486
lhand 0.758902 27.8486
lfingers 7.12502
lthumb 26.3171 56.0428
rfemur -15.5834 10.7942 24.4634
rtibia 13.251
rfoot -4.07427 -37.323
rtoes 40.2846
lfemur -112.638 66.3765 -60.5606
ltibia 108.341
lfoot -29.5349 57.9
ltoes 49.6879
724
root -0.734223 18.8078 10.8584 -554.356 78.4471 -209.377
lowerback -6.33748 2.34324 -7.34939
upperback -11.8125 3.78063 -7.00566
thorax -9.02589 2.56453 -3.54667
lowerneck -7.54777 10.2144 6.63379
upperneck 33.6125 14.4812 5.00645
head 12.5108 8.6163 2.784
rclavicle -3.57812e-014 5.40694e-014
rhumerus 220.486 -60.3564 -239.933
rradius 15.4201
rwrist 129.339
rhand -6.66468 5.72733
rfingers 7.12502
rthumb 19.1933 -23.3456
lclavicle -3.57812e-014 5.40694e-014
lhumerus 16.2369 -12.6913 32.7214
lradius 16.9701
lwrist -44.6387
lhand 0.7265 28.5773
lfingers 7.12502
lthumb 26.286 56.7762
rfemur -14.8658 10.284 24.8125
rtibia 12.4453
rfoot -8.58117 -39.7894
rtoes 43.7085
lfemur -113.923 66.3022 -60.4916
ltibia 110.061
lfoot -36.5593 56.2313
ltoes 50.0174
725
root -0.786249 18.8343 10.8661 -560.762 79.62 -215.257
lowerback -5.88939 2.11198 -7.5075
upperback -11.8311 3.39123 -6.92036
thorax -9.3278 2.37861 -3.39716
lowerneck -7.0826 10.6052 6.70755
upperneck 33.552 15.0807 4.94358
head 12.4096 8.87924 2.78372
rclavicle 3.22031e-014 -1.59028e-014
rhumerus 218.909 -59.7465 -239.181
rradius 15.3047
rwrist 130.115
rhand -6.98785 5.43549
rfingers 7.12502
rthumb 18.8825 -23.668
lclavicle 3.22031e-014 -1.59028e-014
lhumerus 17.0185 -20.6448 30.5474
lradius 18.4244
lwrist -35.7524
lhand 1.47926 30.4288
lfingers 7.12502
lthumb 27.0065 58.5182
rfemur -14.5604 10.874 24.9063
rtibia 12.1781
rfoot -16.2397 -41.4972
rtoes 48.9032
lfemur -115.201 66.2593 -60.4683
ltibia 111.678
lfoot -41.1341 54.9945
ltoes 50.6566
726
root -0.843144 18.843 10.8682 -570.304 80.5668 -224.256
lowerback -5.18741 1.83157 -8.22759
upperback -11.988 2.90453 -6.65484
thorax -9.98785 2.21295 -2.7735
lowerneck -6.45417 11.0056 6.53155
upperneck 33.5895 15.7877 4.85619
head 12.2941 9.17109 2.8148
rclavicle 2.5842e-014 9.54166e-015
rhumerus 216.41 -58.8457 -237.2
rradius 15.2694
rwrist 131.441
rhand -7.51754 5.55428
rfingers 7.12502
rthumb 18.373 -23.598
lclavicle 2.5842e-014 9.54166e-015
lhumerus 15.8604 -12.4143 36.2612
lradius 17.7187
lwrist -44.2573
lhand 1.29302 28.7115
lfingers 7.12502
lthumb 26.8283 56.8284
rfemur -14.5726 11.843 24.5493
rtibia 12.4705
rfoot -25.9718 -41.1273
rtoes 54.2782
lfemur -116.155 66.2408 -60.5153
ltibia 113.257
lfoot -48.6894 49.862
ltoes 51.4713
727
root -0.897749 18.846 10.8685 -584.357 80.9166 -237.751
lowerback -4.70225 1.64074 -9.29245
upperback -11.9096 2.55421 -6.70919
thorax -10.2557 2.12624 -2.26989
lowerneck -6.20702 11.3932 6.3543
upperneck 33.5429 16.3542 4.90743
head 12.2053 9.39958 2.89862
rclavicle 3.49861e-014 -1.59028e-014
rhumerus 215.022 -58.1944 -236.677
rradius 15.1196
rwrist 131.722
rhand -7.93339 5.86161
rfingers 7.12502
rthumb 17.9729 -23.3279
lclavicle 3.49861e-014 -1.59028e-014
lhumerus 16.068 -9.43627 39.3184
lradius 16.8902
lwrist -47.6402
lhand 0.283054 27.7827
lfingers 7.12502
lthumb 25.8615 56.0442
rfemur -14.8778 12.8641 23.5518
rtibia 13.2833
rfoot -33.9442 -39.335
rtoes 57.5522
lfemur -117.108 66.4756 -61.3722
ltibia 114.706
lfoot -54.8459 42.9794
ltoes 50.5498
728
root -0.953547 18.8439 10.8767 -599.644 80.4893 -252.371
lowerback -4.28448 1.46987 -9.94514
upperback -11.6585 2.23067 -7.46618
thorax -10.2244 1.97729 -2.7321
lowerneck -6.19734 11.8004 6.82901
upperneck 33.2612 16.7171 5.0909
head 12.126 9.606 2.91735
rclavicle 3.65764e-014 -3.97569e-014
rhumerus 212.908 -56.1618 -236.317
rradius 15.1187
rwrist 132.635
rhand -8.34977 6.50895
rfingers 7.12502
rthumb 17.5723 -22.7169
lclavicle 3.65764e-014 -3.97569e-014
lhumerus 16.8314 -5.64578 41.9994
lradius 15.9739
lwrist -52.1748
lhand -0.740008 26.8863
lfingers 7.12502
lthumb 24.8814 55.287
rfemur -15.2062 13.3662 22.4093
rtibia 14.3494
rfoot -39.6355 -37.5166
rtoes 58.9872
lfemur -118.175 66.9731 -62.7953
ltibia 116.011
lfoot -51.7433 47.3707
ltoes 50.4545
729
root -1.01976 18.8341 10.8843 -613.099 79.713 -265.098
lowerback -3.46265 1.20063 -11.2163
upperback -11.631 1.69012 -7.46362
thorax -10.7528 1.82741 -2.06889
lowerneck -5.96828 12.1519 6.78385
upperneck 33.1757 17.2227 5.02088
head 12.0528 9.8037 2.93064
rclavicle -3.22031e-014 1.90833e-014
rhumerus 206.045 -51.5925 -231.202
rradius 17.3271
rwrist 137.649
rhand -9.22134 8.36081
rfingers 7.12502
rthumb 16.7334 -20.938
lclavicle -3.22031e-014 1.90833e-014
lhumerus 16.5698 -2.25945 44.9451
lradius 15.5129
lwrist -55.0473
lhand -1.59695 25.8592
lfingers 7.12502
lthumb 24.0599 54.3709
rfemur -15.396 13.5787 21.5297
rtibia 15.2892
rfoot -45.9142 -34.2933
rtoes 60.608
lfemur -119.313 67.5325 -64.0602
ltibia 117.304
lfoot -51.5288 48.7007
ltoes 50.0439
730
root -1.09599 18.8213 10.8798 -624.635 79.143 -276.1
lowerback -2.80818 0.963063 -11.6796
upperback -11.711 1.21186 -7.39179
thorax -11.2498 1.64345 -1.75528
lowerneck -5.65182 12.5191 6.77412
upperneck 32.9144 17.6996 5.02588
head 11.8876 10.0007 2.93712
rclavicle 5.40694e-014 -6.67916e-014
rhumerus 207.298 -52.3886 -233.209
rradius 15.1951
rwrist 135.979
rhand -9.89327 8.51547
rfingers 7.12502
rthumb 16.0864 -20.8368
lclavicle 5.40694e-014 -6.67916e-014
lhumerus 16.3637 -1.06415 46.2545
lradius 15.1138
lwrist -55.2841
lhand -2.01135 24.3613
lfingers 7.12502
lthumb 23.6625 52.9249
rfemur -15.9203 13.6269 21.2405
rtibia 16.2912
rfoot -46.5759 -33.6261
rtoes 61.3712
lfemur -121.509 67.9733 -65.4118
ltibia 118.689
lfoot -58.8729 40.4678
ltoes 47.9405
731
root -1.17242 18.7765 10.877 -635.159 79.1851 -286.185
lowerback -2.47608 0.900327 -11.344
upperback -11.6176 1.05441 -6.92967
thorax -11.318 1.5338 -1.41577
lowerneck -5.50187 12.85 5.79087
upperneck 32.2896 18.1475 5.18925
head 11.4755 10.0917 3.09393
rclavicle -4.37326e-015 -3.49861e-014
rhumerus 204.412 -49.5728 -231.24
rradius 15.2945
rwrist 138.131
rhand -11.0127 9.87134
rfingers 7.12502
rthumb 15.0083 -19.5647
lclavicle -4.37326e-015 -3.49861e-014
lhumerus 16.5855 5.13948 51.1059
lradius 14.451
lwrist -61.4722
lhand -2.24355 23.6222
lfingers 7.12502
lthumb 23.4398 52.2145
rfemur -16.5833 14.0062 22.0087
rtibia 17.4333
rfoot -47.0201 -33.9962
rtoes 61.7074
lfemur -125.311 68.4252 -66.7546
ltibia 120.379
lfoot -55.7187 46.3465
ltoes 49.2445
